<svg xmlns="http://www.w3.org/2000/svg" width="28.459" height="24.5" viewBox="0 0 28.459 24.5">
  <g id="Group_94" data-name="Group 94" transform="translate(-28.674 -226.5)">
    <g id="announcement-svgrepo-com" transform="translate(28.674 226.5)">
      <g id="Group_93" data-name="Group 93" transform="translate(0 0)">
        <g id="Group_92" data-name="Group 92" transform="translate(0 0)">
          <path id="Path_701" data-name="Path 701" d="M21.742,36.978h-.289l-8.794,4.828H6.3A6.3,6.3,0,0,0,5.227,54.314L3.19,61.478H10.22l2.01-7.065h.429l8.794,4.827h.289a3.381,3.381,0,0,0,3.377-3.377V40.355A3.382,3.382,0,0,0,21.742,36.978ZM8.52,59.227H6.171l1.236-4.344h2.35Zm7.673-5.442-2.957-1.623H6.3a4.052,4.052,0,0,1,0-8.1h6.933l2.957-1.624Zm6.674,2.079a1.128,1.128,0,0,1-.884,1.1l-3.538-1.942V41.2l3.538-1.942a1.128,1.128,0,0,1,.884,1.1Z" transform="translate(0 -36.978)" fill="#707070"/>
          <path id="Path_703" data-name="Path 703" d="M29,8.071S32.2,10.232,32.2,13.614,29,19.345,29,19.345" transform="translate(-4.743 -2.55)" fill="none" stroke="#707070" stroke-width="2"/>
          <path id="Path_704" data-name="Path 704" d="M20.081,4.264" transform="translate(-2.685 -0.57)" fill="none" stroke="#707070" stroke-width="1"/>
        </g>
      </g>
    </g>
    <path id="Path_706" data-name="Path 706" d="M41.474,2564.178l7.9-4.62s1.225-.735,1.062,1.552,0,15.276,0,15.276-.327.572-1.062,0-8.225-4.618-8.225-4.618Z" transform="translate(0.932 -2330.394)" fill="#fff" stroke="#fff" stroke-width="1"/>
  </g>
</svg>
