<svg id="Component_2" data-name="Component 2" xmlns="http://www.w3.org/2000/svg" width="9.086" height="10.103" viewBox="0 0 9.086 10.103">
  <rect id="Rectangle_193" data-name="Rectangle 193" width="6.988" height="6.988" fill="none"/>
  <path id="Path_104" data-name="Path 104" d="M264.483,6.315a1.234,1.234,0,0,0,1.2-1.263,1.2,1.2,0,1,0-2.391,0A1.234,1.234,0,0,0,264.483,6.315Zm-2.451-4.041a3.32,3.32,0,0,1,1.435-.821L263.945,0h1.2l.478,1.452a4.111,4.111,0,0,1,1.435.821l1.435-.316.6,1.137-.956,1.137a3.8,3.8,0,0,1,.06.821c0,.253-.06.568-.06.821l.956,1.137-.6,1.137-1.435-.316a3.321,3.321,0,0,1-1.435.821l-.478,1.452h-1.2l-.478-1.452a4.11,4.11,0,0,1-1.435-.821l-1.435.316L260,7.009l.956-1.137a3.8,3.8,0,0,1-.06-.821c0-.253.06-.568.06-.821L260,3.094l.6-1.137Z" transform="translate(-260)" fill="#6b6b6b" fill-rule="evenodd"/>
</svg>
