<svg xmlns="http://www.w3.org/2000/svg" width="13.629" height="15.925" viewBox="0 0 13.629 15.925">
  <g id="trash-outline" transform="translate(-79.5 -47.5)">
    <path id="Path_727" data-name="Path 727" d="M112,112l.718,11.481a1.152,1.152,0,0,0,1.148,1.148h6.6a1.155,1.155,0,0,0,1.148-1.148L122.333,112" transform="translate(-30.852 -61.704)" fill="none" stroke="#e90000" stroke-linecap="round" stroke-linejoin="round" stroke-width="1"/>
    <path id="Path_728" data-name="Path 728" d="M80,112H92.629" transform="translate(0 -61.704)" stroke="#e90000" stroke-linecap="round" stroke-miterlimit="10" stroke-width="1"/>
    <path id="Path_729" data-name="Path 729" d="M184.287,50.3V48.861h0a.859.859,0,0,1,.861-.861h2.87a.859.859,0,0,1,.861.861h0V50.3m-2.3,2.3v8.036M184,52.592l.287,8.036m4.879-8.036-.287,8.036" transform="translate(-100.269 0)" fill="none" stroke="#e90000" stroke-linecap="round" stroke-linejoin="round" stroke-width="1"/>
  </g>
</svg>
