<svg xmlns="http://www.w3.org/2000/svg" width="35.964" height="35.964" viewBox="0 0 35.964 35.964">
  <g id="icons8-google" transform="translate(-4 -4)">
    <path id="Path_1" data-name="Path 1" d="M39.614,18.46H38.165v-.075H21.982v7.193H32.144a10.8,10.8,0,1,1-3-11.653l5.086-5.086a17.963,17.963,0,1,0,5.738,13.143A18.1,18.1,0,0,0,39.614,18.46Z" fill="#ffc107"/>
    <path id="Path_2" data-name="Path 2" d="M6.306,13.612l5.908,4.333a10.767,10.767,0,0,1,17.158-4.02l5.086-5.086A17.947,17.947,0,0,0,6.306,13.612Z" transform="translate(-0.233)" fill="#ff3d00"/>
    <path id="Path_3" data-name="Path 3" d="M22.2,42.391a17.9,17.9,0,0,0,12.056-4.668l-5.565-4.709a10.761,10.761,0,0,1-16.635-4.959L6.2,32.572A17.968,17.968,0,0,0,22.2,42.391Z" transform="translate(-0.221 -2.427)" fill="#4caf50"/>
    <path id="Path_4" data-name="Path 4" d="M41.632,20.075H40.184V20H24v7.193H34.162A10.825,10.825,0,0,1,30.488,32.2l0,0,5.565,4.709A17.4,17.4,0,0,0,41.982,23.6,18.1,18.1,0,0,0,41.632,20.075Z" transform="translate(-2.018 -1.615)" fill="#1976d2"/>
  </g>
</svg>
