<svg xmlns="http://www.w3.org/2000/svg" width="473.927" height="333.964" viewBox="0 0 473.927 333.964">
  <g id="undraw_Scrum_board_re_wk7v_1_" data-name="undraw_Scrum_board_re_wk7v (1)" transform="translate(0 0.003)">
    <path id="Path_52" data-name="Path 52" d="M314.785,193.947H284.562A10.969,10.969,0,0,0,273.6,204.906v32.767c-.386-.023-.773-.058-1.154-.1a38.644,38.644,0,1,1,42.163-44.776C314.676,193.174,314.733,193.561,314.785,193.947Z" transform="translate(-209.767 -160.495)" fill="#f2f2f2"/>
    <path id="Path_53" data-name="Path 53" d="M696.971,216.495H309.95a12.126,12.126,0,0,0-12.112,12.112V432.788A12.126,12.126,0,0,0,309.95,444.9h387.02a12.126,12.126,0,0,0,12.112-12.112V228.607A12.126,12.126,0,0,0,696.971,216.495ZM707.93,432.788a10.969,10.969,0,0,1-10.959,10.959H309.95a10.969,10.969,0,0,1-10.959-10.959V228.607a10.969,10.969,0,0,1,10.959-10.959h387.02a10.969,10.969,0,0,1,10.959,10.959Z" transform="translate(-235.155 -184.197)" fill="#3f3d56"/>
    <path id="Path_54" data-name="Path 54" d="M700.368,273.019H351.415a.577.577,0,0,1,0-1.154H700.368a.577.577,0,0,1,0,1.154Z" transform="translate(-257.586 -207.63)" fill="#3f3d56"/>
    <path id="Path_55" data-name="Path 55" d="M522.415,429.41a.577.577,0,0,1-.577-.577V239.072a.577.577,0,1,1,1.154,0V428.833a.577.577,0,0,1-.577.577Z" transform="translate(-329.956 -193.507)" fill="#3f3d56"/>
    <path id="Path_56" data-name="Path 56" d="M673.415,429.41a.577.577,0,0,1-.577-.577V239.072a.577.577,0,1,1,1.154,0V428.833a.577.577,0,0,1-.577.577Z" transform="translate(-393.862 -193.507)" fill="#3f3d56"/>
    <path id="Path_57" data-name="Path 57" d="M824.415,429.41a.577.577,0,0,1-.577-.577V239.072a.577.577,0,1,1,1.154,0V428.833a.577.577,0,0,1-.577.577Z" transform="translate(-457.768 -193.507)" fill="#3f3d56"/>
    <path id="Path_58" data-name="Path 58" d="M408.385,355.025H387.31a2.6,2.6,0,0,1-2.6-2.6V327.559a2.6,2.6,0,0,1,2.6-2.6h21.076a2.6,2.6,0,0,1,2.6,2.6v24.871A2.6,2.6,0,0,1,408.385,355.025Z" transform="translate(-271.923 -230.102)" fill="#4561f1"/>
    <path id="Path_59" data-name="Path 59" d="M460.385,478.025H439.31a2.6,2.6,0,0,1-2.6-2.6V450.559a2.6,2.6,0,0,1,2.6-2.6h21.076a2.6,2.6,0,0,1,2.6,2.6v24.871A2.6,2.6,0,0,1,460.385,478.025Z" transform="translate(-293.93 -282.158)" fill="#4561f1"/>
    <path id="Path_60" data-name="Path 60" d="M578.385,381.025H557.31a2.6,2.6,0,0,1-2.6-2.6V353.559a2.6,2.6,0,0,1,2.6-2.6h21.076a2.6,2.6,0,0,1,2.6,2.6v24.871a2.6,2.6,0,0,1-2.6,2.6Z" transform="translate(-343.87 -241.106)" fill="#4561f1"/>
    <path id="Path_61" data-name="Path 61" d="M731.385,334.025H710.31a2.6,2.6,0,0,1-2.6-2.6V306.559a2.6,2.6,0,0,1,2.6-2.6h21.076a2.6,2.6,0,0,1,2.6,2.6v24.871a2.6,2.6,0,0,1-2.6,2.6Z" transform="translate(-408.623 -221.215)" fill="#4561f1"/>
    <path id="Path_62" data-name="Path 62" d="M872.385,334.025H851.31a2.6,2.6,0,0,1-2.6-2.6V306.559a2.6,2.6,0,0,1,2.6-2.6h21.076a2.6,2.6,0,0,1,2.6,2.6v24.871A2.6,2.6,0,0,1,872.385,334.025Z" transform="translate(-468.296 -221.215)" fill="#4561f1"/>
    <path id="Path_63" data-name="Path 63" d="M937.385,346.025H916.31a2.6,2.6,0,0,1-2.6-2.6V318.559a2.6,2.6,0,0,1,2.6-2.6h21.076a2.6,2.6,0,0,1,2.6,2.6v24.871A2.6,2.6,0,0,1,937.385,346.025Z" transform="translate(-495.806 -226.293)" fill="#e6e6e6"/>
    <path id="Path_64" data-name="Path 64" d="M908.385,423.025H887.31a2.6,2.6,0,0,1-2.6-2.6V395.559a2.6,2.6,0,0,1,2.6-2.6h21.076a2.6,2.6,0,0,1,2.6,2.6v24.871A2.6,2.6,0,0,1,908.385,423.025Z" transform="translate(-483.532 -258.881)" fill="#e6e6e6"/>
    <path id="Path_65" data-name="Path 65" d="M784.385,407.025H763.31a2.6,2.6,0,0,1-2.6-2.6V379.559a2.6,2.6,0,0,1,2.6-2.6h21.076a2.6,2.6,0,0,1,2.6,2.6v24.871A2.6,2.6,0,0,1,784.385,407.025Z" transform="translate(-431.053 -252.11)" fill="#ff6584"/>
    <path id="Path_66" data-name="Path 66" d="M713.385,423.025H692.31a2.6,2.6,0,0,1-2.6-2.6V395.559a2.6,2.6,0,0,1,2.6-2.6h21.076a2.6,2.6,0,0,1,2.6,2.6v24.871A2.6,2.6,0,0,1,713.385,423.025Z" transform="translate(-401.005 -258.881)" fill="#e6e6e6"/>
    <path id="Path_67" data-name="Path 67" d="M560.385,491.025H539.31a2.6,2.6,0,0,1-2.6-2.6V463.559a2.6,2.6,0,0,1,2.6-2.6h21.076a2.6,2.6,0,0,1,2.6,2.6v24.871A2.6,2.6,0,0,1,560.385,491.025Z" transform="translate(-336.252 -287.66)" fill="#e6e6e6"/>
    <path id="Path_68" data-name="Path 68" d="M375.385,434.025H354.31a2.6,2.6,0,0,1-2.6-2.6V406.559a2.6,2.6,0,0,1,2.6-2.6h21.076a2.6,2.6,0,0,1,2.6,2.6v24.871A2.6,2.6,0,0,1,375.385,434.025Z" transform="translate(-257.957 -263.536)" fill="#ff6584"/>
    <path id="Path_69" data-name="Path 69" d="M478.385,355.025H457.31a2.6,2.6,0,0,1-2.6-2.6V327.559a2.6,2.6,0,0,1,2.6-2.6h21.076a2.6,2.6,0,0,1,2.6,2.6v24.871A2.6,2.6,0,0,1,478.385,355.025Z" transform="translate(-301.548 -230.102)" fill="#e6e6e6"/>
    <path id="Path_70" data-name="Path 70" d="M440.022,254.109H407.145a2.307,2.307,0,1,1,0-4.614h32.877a2.307,2.307,0,0,1,0,4.614Z" transform="translate(-280.44 -198.163)" fill="#ccc"/>
    <path id="Path_71" data-name="Path 71" d="M601.022,254.109H568.145a2.307,2.307,0,1,1,0-4.614h32.876a2.307,2.307,0,1,1,0,4.614Z" transform="translate(-348.578 -198.163)" fill="#ccc"/>
    <path id="Path_72" data-name="Path 72" d="M752.022,254.109H719.145a2.307,2.307,0,1,1,0-4.614h32.877a2.307,2.307,0,1,1,0,4.614Z" transform="translate(-412.484 -198.163)" fill="#ccc"/>
    <path id="Path_73" data-name="Path 73" d="M893.022,254.109H860.145a2.307,2.307,0,1,1,0-4.614h32.877a2.307,2.307,0,0,1,0,4.614Z" transform="translate(-472.158 -198.163)" fill="#ccc"/>
    <path id="Path_74" data-name="Path 74" d="M323.641,533.445a5.8,5.8,0,0,1-5.018-7.343L303.838,512.34l7.817-1.983,14.538,11.792a5.831,5.831,0,0,1-2.553,11.3Z" transform="translate(-237.695 -308.564)" fill="#ffb8b8"/>
    <path id="Path_75" data-name="Path 75" d="M184.4,546.24h7.071l3.364-27.275H184.4Z" transform="translate(-78.042 -219.637)" fill="#ffb8b8"/>
    <path id="Path_76" data-name="Path 76" d="M0,0H22.224V8.587H8.587A8.587,8.587,0,0,1,0,0H0Z" transform="translate(127.068 333.169) rotate(179.997)" fill="#2f2e41"/>
    <path id="Path_77" data-name="Path 77" d="M100.345,538.062l6.834,1.819,10.267-25.491L107.361,511.7Z" transform="translate(-42.468 -216.564)" fill="#ffb8b8"/>
    <path id="Path_78" data-name="Path 78" d="M0,0H22.224V8.586H8.587A8.586,8.586,0,0,1,0,0H0Z" transform="matrix(-0.966, -0.257, 0.257, -0.966, 76.2, 333.17)" fill="#2f2e41"/>
    <path id="Path_79" data-name="Path 79" d="M346.046,625.6h-10.79a2.728,2.728,0,0,1-2.726-2.476l-6.55-68.021a2.162,2.162,0,0,0-4.223-.412l-19.018,63.561a2.735,2.735,0,0,1-3.288,1.872l-10.038-2.51a2.738,2.738,0,0,1-1.988-3.338c.164-.64,16.387-64.039,16.528-64.691,3.676-27.09,8.073-34.349,10.436-38.249.2-.323.375-.62.537-.9.2-.351,1.449-3.832,2.24-6.093a2.763,2.763,0,0,1,1.4-1.717c9.927-5.077,21.541-1.563,24.865-.364a2.7,2.7,0,0,1,1.349,1.047c9.969,15.037,5.077,102.374,3.995,119.729A2.741,2.741,0,0,1,346.046,625.6Z" transform="translate(-230.712 -304.166)" fill="#2f2e41"/>
    <circle id="Ellipse_3" data-name="Ellipse 3" cx="14.166" cy="14.166" r="14.166" transform="translate(73.322 120.813)" fill="#ffb8b8"/>
    <path id="Path_80" data-name="Path 80" d="M325.812,475.969l-.1-.1c-.191-.185-19.066-18.676-16.623-35.775,1.045-7.313,6.962-11.986,17.112-13.514a15.651,15.651,0,0,1,17.3,11.029l10.036,34.31Z" transform="translate(-239.824 -273.037)" fill="#ccc"/>
    <path id="Path_81" data-name="Path 81" d="M310,497.315l-13.45-13.365a7.577,7.577,0,0,1-2.007-7.147l6.511-26.485a5.972,5.972,0,1,1,11.529,3.111l-6.855,23.3,11.085,11.9Z" transform="translate(-233.669 -281.23)" fill="#ccc"/>
    <path id="Path_82" data-name="Path 82" d="M427.092,449.959a5.8,5.8,0,0,1-8.585,2.324l-17.955,9.306.794-7.905,15.917-9.851a5.831,5.831,0,0,1,9.829,6.126Z" transform="translate(-278.626 -279.485)" fill="#ffb8b8"/>
    <path id="Path_83" data-name="Path 83" d="M392,451.606l-17.5,7.564a7.388,7.388,0,0,1-7.2-.772L345.041,442.45a5.972,5.972,0,1,1,7.172-9.548L371.3,447.923l15.169-5.869Z" transform="translate(-254.077 -275.248)" fill="#ccc"/>
    <path id="Path_84" data-name="Path 84" d="M319.91,386.179c1.748-2.19,5.013-2.307,7.413-3.752,3.145-1.892,4.445-6.12,3.431-9.647a12.1,12.1,0,0,0-7.428-7.591,20.5,20.5,0,0,0-10.853-.7c-5.381.946-10.68,3.458-13.962,7.826s-4.117,10.766-1.143,15.35c1.367,2.107,3.478,3.845,4.023,6.3.717,3.218-1.541,6.322-3.959,8.563-2.755,2.553-5.916,4.691-8.33,7.569s-4.023,6.81-2.922,10.4c.923,3.009,3.608,5.225,6.553,6.335a27.777,27.777,0,0,0,9.3,1.332c3.055.06,6.3-.015,8.874-1.662a10.32,10.32,0,0,0,4.335-8.379,19.843,19.843,0,0,0-2.448-9.4,36.134,36.134,0,0,1-2.468-5.3,7.423,7.423,0,0,1,.248-5.689,7.093,7.093,0,0,1,4.963-3.284c.1-.021.215-.039.331-.055a4.267,4.267,0,0,0,3.653-4.976A4.167,4.167,0,0,1,319.91,386.179Z" transform="translate(-230.072 -246.659)" fill="#2f2e41"/>
    <path id="Path_85" data-name="Path 85" d="M475.572,547.287H468.5l-3.364-27.275h10.436Z" transform="translate(-196.854 -220.08)" fill="#a0616a"/>
    <path id="Path_86" data-name="Path 86" d="M455.912,563.8h13.637v8.586H447.325a8.586,8.586,0,0,1,8.587-8.586Z" transform="translate(-189.316 -238.611)" fill="#2f2e41"/>
    <path id="Path_87" data-name="Path 87" d="M556.9,535.209l-6.432,2.938-14.393-23.411,9.493-4.336Z" transform="translate(-226.878 -216.011)" fill="#a0616a"/>
    <path id="Path_88" data-name="Path 88" d="M8.587,0H22.224V8.587H0A8.587,8.587,0,0,1,8.587,0Z" transform="translate(310.348 325.965) rotate(-24.548)" fill="#2f2e41"/>
    <path id="Path_89" data-name="Path 89" d="M718.769,548a5.8,5.8,0,0,0,.462-8.882l8.312-18.861-10.56,1.79-6.275,17.636a5.831,5.831,0,0,0,8.06,8.317Z" transform="translate(-409.337 -312.753)" fill="#a0616a"/>
    <path id="Path_90" data-name="Path 90" d="M662.045,639.334h-6.755a2.605,2.605,0,0,1-2.589-2.407l-3.684-98.375a2.6,2.6,0,0,1,2.841-2.771l39.068,4.149a2.6,2.6,0,0,1,2.343,2.534l.819,43.394a2.014,2.014,0,0,0,.135.688L710.248,628.1a2.595,2.595,0,0,1-1.525,3.369L701.878,634a2.6,2.6,0,0,1-3.205-1.248l-19.687-38.28a2.583,2.583,0,0,1-.233-.659l-3.363-16.2a2.019,2.019,0,0,0-3.982.18l-6.784,59.249A2.6,2.6,0,0,1,662.045,639.334Z" transform="translate(-383.778 -319.319)" fill="#2f2e41"/>
    <circle id="Ellipse_4" data-name="Ellipse 4" cx="14.166" cy="14.166" r="14.166" transform="translate(267.464 113.981)" fill="#a0616a"/>
    <path id="Path_91" data-name="Path 91" d="M674.346,497.666a50.563,50.563,0,0,1-27.035-8.189l-.138-.1.014-.167,5.419-63.109a8.894,8.894,0,0,1,8.42-8.11c7.023-.323,16.456.084,21.506,3.845a24.625,24.625,0,0,1,10.091,23.482c-2.526,19.16.336,45.006.67,47.89l.024.208-.19.087a44.565,44.565,0,0,1-18.781,4.159Z" transform="translate(-383.001 -269.438)" fill="#4561f1"/>
    <path id="Path_92" data-name="Path 92" d="M719.655,504.011a2.888,2.888,0,0,1-2.123-.936l-3.1-3.381a2.9,2.9,0,0,1-.64-2.766l7.066-23.916-10.751-22.577a5.081,5.081,0,0,1,9.061-4.593l14.589,23.672a6.893,6.893,0,0,1,.415,6.459l-11.887,26.339a2.877,2.877,0,0,1-2.172,1.661A2.911,2.911,0,0,1,719.655,504.011Z" transform="translate(-409.428 -280.13)" fill="#4561f1"/>
    <path id="Path_93" data-name="Path 93" d="M552.152,461.719a5.8,5.8,0,0,0,8.651-2.064l20.44,2.651-4.7-9.626-18.69-1.042a5.831,5.831,0,0,0-5.7,10.08Z" transform="translate(-341.778 -283.522)" fill="#a0616a"/>
    <path id="Path_94" data-name="Path 94" d="M605.607,452.518a7.75,7.75,0,0,1-1.064-.073l-32.157-4.46a3.2,3.2,0,0,1-2.452-1.795,3.259,3.259,0,0,1-.183-.478h0a3.209,3.209,0,0,1,.332-2.556l2.661-4.412a3.221,3.221,0,0,1,2.743-1.549h0l28.029.032,20.934-18.755a5.672,5.672,0,0,1,7.775,8.257L611.342,449.96a7.708,7.708,0,0,1-5.734,2.557Z" transform="translate(-350.18 -269.064)" fill="#4561f1"/>
    <path id="Path_95" data-name="Path 95" d="M665.446,380.732c1.295-3,2.39-6.986-.093-9.1-1.44-1.229-3.515-1.231-5.4-1.384-5.316-.431-10.789-2.877-13.388-7.535s-1.147-11.584,3.755-13.686c3.3-1.417,7.093-.452,10.552.529l10.385,2.945c3.086.875,6.326,1.84,8.547,4.154,3.543,3.69,3.278,9.927.464,14.2s-7.052,8.727-11.9,10.349Z" transform="translate(-382.205 -239.982)" fill="#2f2e41"/>
    <path id="Path_96" data-name="Path 96" d="M615.683,738.5H189.849a.687.687,0,1,1,0-1.374H615.683a.687.687,0,0,1,0,1.374Z" transform="translate(-189.162 -404.536)" fill="#3f3d56"/>
  </g>
</svg>
