<svg xmlns="http://www.w3.org/2000/svg" width="21.71" height="21.711" viewBox="0 0 21.71 21.711">
  <path id="icons8-settings_1_" data-name="icons8-settings (1)" d="M11.538,2a.472.472,0,0,0-.466.4l-.459,2.811a7.916,7.916,0,0,0-1.575.647L6.719,4.2a.472.472,0,0,0-.607.05L4.275,6.081a.472.472,0,0,0-.053.6L5.854,9.02a7.985,7.985,0,0,0-.66,1.586l-2.8.466A.472.472,0,0,0,2,11.537v2.6a.472.472,0,0,0,.389.466l2.8.5A7.939,7.939,0,0,0,5.85,16.68L4.2,18.991a.472.472,0,0,0,.05.608l1.835,1.836a.472.472,0,0,0,.6.053l2.339-1.637A7.954,7.954,0,0,0,10.6,20.5l.467,2.814a.472.472,0,0,0,.466.395h2.6a.472.472,0,0,0,.466-.39l.5-2.825a7.953,7.953,0,0,0,1.572-.659l2.354,1.652a.472.472,0,0,0,.6-.053L21.466,19.6a.472.472,0,0,0,.049-.609l-1.679-2.33a7.914,7.914,0,0,0,.645-1.563l2.84-.5a.472.472,0,0,0,.39-.466v-2.6a.472.472,0,0,0-.4-.466l-2.836-.464a7.968,7.968,0,0,0-.647-1.561l1.656-2.359a.472.472,0,0,0-.053-.6L19.6,4.248a.472.472,0,0,0-.609-.049L16.667,5.871a7.911,7.911,0,0,0-1.574-.655L14.6,2.391A.472.472,0,0,0,14.133,2Zm.4.944h1.8l.47,2.684a.472.472,0,0,0,.35.377,6.984,6.984,0,0,1,1.93.8.472.472,0,0,0,.52-.02L19.217,5.2l1.271,1.271L18.915,8.712a.472.472,0,0,0-.018.514,7.045,7.045,0,0,1,.8,1.921.472.472,0,0,0,.382.351l2.694.441v1.8l-2.7.474a.472.472,0,0,0-.376.352,6.985,6.985,0,0,1-.794,1.92A.472.472,0,0,0,18.92,17l1.595,2.213-1.271,1.272-2.237-1.57a.472.472,0,0,0-.516-.017,7.03,7.03,0,0,1-1.926.807.472.472,0,0,0-.349.375l-.477,2.684h-1.8l-.444-2.672a.472.472,0,0,0-.352-.381,7.033,7.033,0,0,1-1.938-.8.472.472,0,0,0-.513.018L6.47,20.488,5.2,19.214l1.569-2.193a.472.472,0,0,0,.019-.519,7.014,7.014,0,0,1-.808-1.942.472.472,0,0,0-.375-.35l-2.658-.472v-1.8L5.6,11.5a.472.472,0,0,0,.381-.351A7.057,7.057,0,0,1,6.79,9.2a.472.472,0,0,0-.017-.515L5.223,6.469,6.5,5.2,8.7,6.77a.472.472,0,0,0,.517.02,7,7,0,0,1,1.937-.8.472.472,0,0,0,.353-.383Zm.917,6.136a3.776,3.776,0,1,0,3.776,3.776A3.783,3.783,0,0,0,12.857,9.08Zm0,.944a2.832,2.832,0,1,1-2.832,2.832A2.825,2.825,0,0,1,12.857,10.024Z" transform="translate(-2.002 -2)" fill="#707070"/>
</svg>
