<svg xmlns="http://www.w3.org/2000/svg" xmlns:xlink="http://www.w3.org/1999/xlink" width="17" height="17" viewBox="0 0 17 17">
  <defs>
    <clipPath id="clip-path">
      <path id="Path_34" data-name="Path 34" d="M13.9-105.395a2.313,2.313,0,0,1-.7.2,1.283,1.283,0,0,0,.532-.715,2.346,2.346,0,0,1-.769.314,1.175,1.175,0,0,0-.884-.408,1.253,1.253,0,0,0-1.212,1.292,1.4,1.4,0,0,0,.031.294,3.37,3.37,0,0,1-2.5-1.35,1.357,1.357,0,0,0-.164.65,1.316,1.316,0,0,0,.538,1.075,1.143,1.143,0,0,1-.548-.162v.017a1.275,1.275,0,0,0,.971,1.267,1.139,1.139,0,0,1-.319.045,1.125,1.125,0,0,1-.227-.023,1.225,1.225,0,0,0,1.131.9,2.334,2.334,0,0,1-1.5.553A2.255,2.255,0,0,1,8-101.463a3.277,3.277,0,0,0,1.857.58,3.55,3.55,0,0,0,3.446-3.675c0-.056,0-.112,0-.167A2.561,2.561,0,0,0,13.9-105.395Z" transform="translate(-9 106)" fill="none" clip-rule="evenodd"/>
    </clipPath>
    <clipPath id="clip-path-2">
      <path id="Path_33" data-name="Path 33" d="M-1301-3742.1h871.932V-7045H-1301Z" transform="translate(1301 7045)" fill="none"/>
    </clipPath>
  </defs>
  <g id="Twitter" transform="translate(0.454 0.03)">
    <g id="Group_787" data-name="Group 787">
      <circle id="Ellipse_17" data-name="Ellipse 17" cx="8.5" cy="8.5" r="8.5" transform="translate(-0.454 -0.03)" fill="#1da0f1"/>
      <g id="Group_70" data-name="Group 70" transform="translate(6.177 5.632)" clip-path="url(#clip-path)">
        <g id="Group_69" data-name="Group 69" transform="translate(-594.458 -3151.219)" clip-path="url(#clip-path-2)">
          <path id="Path_32" data-name="Path 32" d="M3-111H13.445v9.658H3Z" transform="translate(589.188 3259.948)" fill="#fff"/>
        </g>
      </g>
    </g>
  </g>
</svg>
