<svg xmlns="http://www.w3.org/2000/svg" width="18" height="17" viewBox="0 0 18 17">
  <g id="Group_791" data-name="Group 791" transform="translate(-1100 -748)">
    <g id="Group_790" data-name="Group 790">
      <ellipse id="Ellipse_22" data-name="Ellipse 22" cx="9" cy="8.5" rx="9" ry="8.5" transform="translate(1100 748)" fill="#25d366"/>
    </g>
    <g id="Group_79" data-name="Group 79" transform="translate(1104.526 752.004)">
      <path id="Subtraction_1" data-name="Subtraction 1" d="M0,8.991H0L.632,6.683A4.455,4.455,0,1,1,4.493,8.914h0a4.462,4.462,0,0,1-2.129-.542L0,8.991Z" fill="#fff"/>
      <g id="Group_78" data-name="Group 78" transform="translate(0.79 0.753)">
        <path id="Path_686" data-name="Path 686" d="M21.166,16.173a3.705,3.705,0,0,0-3.139,5.674l.088.14-.374,1.366,1.4-.368.135.08a3.7,3.7,0,0,0,1.885.516h0a3.7,3.7,0,0,0,0-7.409Zm2.178,5.295a1.146,1.146,0,0,1-.751.529,1.525,1.525,0,0,1-.7-.044,6.4,6.4,0,0,1-.635-.235,4.962,4.962,0,0,1-1.9-1.681,2.165,2.165,0,0,1-.455-1.152,1.249,1.249,0,0,1,.39-.929.409.409,0,0,1,.3-.139c.074,0,.149,0,.213,0s.16-.026.251.191.315.771.343.827a.2.2,0,0,1,.009.2.759.759,0,0,1-.111.186c-.056.065-.117.145-.167.2s-.114.116-.049.227a3.355,3.355,0,0,0,.619.771,3.041,3.041,0,0,0,.9.553c.111.056.176.046.241-.028s.278-.325.353-.437.148-.093.25-.056.649.306.761.362.186.084.213.13A.931.931,0,0,1,23.344,21.468Z" transform="translate(-17.461 -16.173)" fill="#25d366"/>
      </g>
    </g>
  </g>
</svg>
